<svg width="420" height="200" viewBox="0 0 420 200" fill="none" xmlns="http://www.w3.org/2000/svg">
  <rect width="420" height="200" rx="32" fill="#F8F4FF"/>
  <g transform="translate(70 30)">
    <path d="M140 16c-8 12.5-9 21-9 21s-22 7-34 31c-9 18-12 48 6 68 11 12 26 20 42 20s31-8 42-20c18-20 15-50 6-68-12-24-34-31-34-31s-1-8.5-9-21z" fill="#FFE6B3" stroke="#C2915E" stroke-width="4" stroke-linecap="round" stroke-linejoin="round"/>
    <path d="M142 36s-10 24-3 41" stroke="#C2915E" stroke-width="4" stroke-linecap="round"/>
    <path d="M138 36s-14 13-19 35" stroke="#C2915E" stroke-width="4" stroke-linecap="round"/>
    <path d="M142 36s14 13 19 35" stroke="#C2915E" stroke-width="4" stroke-linecap="round"/>
    <circle cx="119" cy="96" r="8" fill="#54314A"/>
    <circle cx="161" cy="96" r="8" fill="#54314A"/>
    <path d="M132 118c3 7 14 10 20 0" stroke="#C76D7A" stroke-width="4" stroke-linecap="round"/>
    <path d="M143 12c6 4 10 11 12 20" stroke="#7EB685" stroke-width="5" stroke-linecap="round"/>
    <path d="M143 12c-6 4-10 11-12 20" stroke="#7EB685" stroke-width="5" stroke-linecap="round"/>
    <circle cx="178" cy="64" r="8" fill="#9BC5C4"/>
    <circle cx="88" cy="64" r="8" fill="#D8C6FF"/>
    <circle cx="102" cy="54" r="6" fill="#D8C6FF"/>
    <circle cx="190" cy="52" r="6" fill="#9BC5C4"/>
    <path d="M77 122c-16 9-22 29-12 45 5 8 14 14 23 15" stroke="#9BC5C4" stroke-width="6" stroke-linecap="round"/>
    <path d="M79 122c-3 15 4 30 16 38" stroke="#D8C6FF" stroke-width="6" stroke-linecap="round"/>
    <path d="M217 122c16 9 22 29 12 45-5 8-14 14-23 15" stroke="#9BC5C4" stroke-width="6" stroke-linecap="round"/>
    <path d="M215 122c3 15-4 30-16 38" stroke="#D8C6FF" stroke-width="6" stroke-linecap="round"/>
  </g>
  <g transform="translate(240 54)">
    <text x="0" y="60" fill="#6E5BA3" font-family="'Baloo 2', 'Nunito', sans-serif" font-weight="700" font-size="48">Little Oat</text>
    <text x="170" y="36" fill="#6E5BA3" font-family="'Inter', sans-serif" font-size="14" font-weight="700">TM</text>
    <text x="0" y="96" fill="#6E5BA3" font-family="'Inter', sans-serif" font-size="18" font-weight="500">Homeschool</text>
  </g>
</svg>
