<svg width="720" height="480" viewBox="0 0 720 480" fill="none" xmlns="http://www.w3.org/2000/svg">
  <rect width="720" height="480" rx="48" fill="#F7F4FF"/>
  <g transform="translate(160 60)">
    <path d="M215 26c-10.5 15.5-12 26.5-12 26.5s-30 9.5-45.5 41.5c-12.5 24-17 63 8 89.5 14.5 15 34 26.5 54.5 26.5s40-11.5 54.5-26.5c25-26.5 20.5-65.5 8-89.5C267 62 237 53 237 53s-1.5-11-12-27z" fill="#FFECC4" stroke="#E0B27A" stroke-width="7" stroke-linecap="round" stroke-linejoin="round"/>
    <path d="M218 53s-14 32-4 55" stroke="#D39A62" stroke-width="7" stroke-linecap="round"/>
    <path d="M212 53s-19 18-26 46" stroke="#D39A62" stroke-width="7" stroke-linecap="round"/>
    <path d="M218 53s19 18 26 46" stroke="#D39A62" stroke-width="7" stroke-linecap="round"/>
    <circle cx="187" cy="138" r="11" fill="#4E2B4C"/>
    <circle cx="249" cy="138" r="11" fill="#4E2B4C"/>
    <path d="M206 170c4 9.5 19 13 28 0" stroke="#D77A84" stroke-width="7" stroke-linecap="round"/>
    <path d="M217 16c8 5.5 13.5 15 16 27" stroke="#7EB685" stroke-width="7" stroke-linecap="round"/>
    <path d="M217 16c-8 5.5-13.5 15-16 27" stroke="#7EB685" stroke-width="7" stroke-linecap="round"/>
    <circle cx="276" cy="96" r="11" fill="#99C8C6"/>
    <circle cx="148" cy="96" r="11" fill="#D9C9FF"/>
    <circle cx="168" cy="82" r="9" fill="#D9C9FF"/>
    <circle cx="294" cy="79" r="9" fill="#99C8C6"/>
    <path d="M131 174c-22 12.5-30 40-17 61 7 10.5 18.5 19 31 20" stroke="#A3D5D1" stroke-width="9" stroke-linecap="round"/>
    <path d="M134 174c-4 19.5 5.5 40 21.5 51" stroke="#E3D7FF" stroke-width="9" stroke-linecap="round"/>
    <path d="M323 174c22 12.5 30 40 17 61-7 10.5-18.5 19-31 20" stroke="#A3D5D1" stroke-width="9" stroke-linecap="round"/>
    <path d="M320 174c4 19.5-5.5 40-21.5 51" stroke="#E3D7FF" stroke-width="9" stroke-linecap="round"/>
  </g>
  <g transform="translate(360 132)">
    <text x="-40" y="72" fill="#7A6CCF" font-family="'Baloo 2', 'Nunito', sans-serif" font-weight="700" font-size="64" letter-spacing="-0.5">Little Oat</text>
    <text x="240" y="46" fill="#7A6CCF" font-family="'Inter', sans-serif" font-size="18" font-weight="700">TM</text>
    <text x="-20" y="112" fill="#7A6CCF" font-family="'Inter', sans-serif" font-size="22" font-weight="600">LEARNERS</text>
  </g>
</svg>
